<?xml version="1.0" encoding="UTF-8" standalone="no"?>
<!-- Generator: Adobe Illustrator 24.1.2, SVG Export Plug-In . SVG Version: 6.00 Build 0)  -->

<svg
   version="1.1"
   id="Layer_1"
   x="0px"
   y="0px"
   viewBox="0 0 224.39706 224.39704"
   xml:space="preserve"
   sodipodi:docname="Sirjan Farm Logo.svg"
   width="224.39705"
   height="224.39705"
   inkscape:version="1.2.1 (9c6d41e410, 2022-07-14, custom)"
   xmlns:inkscape="http://www.inkscape.org/namespaces/inkscape"
   xmlns:sodipodi="http://sodipodi.sourceforge.net/DTD/sodipodi-0.dtd"
   xmlns="http://www.w3.org/2000/svg"
   xmlns:svg="http://www.w3.org/2000/svg"><defs
   id="defs110" /><sodipodi:namedview
   id="namedview108"
   pagecolor="#505050"
   bordercolor="#eeeeee"
   borderopacity="1"
   inkscape:showpageshadow="0"
   inkscape:pageopacity="0"
   inkscape:pagecheckerboard="0"
   inkscape:deskcolor="#505050"
   showgrid="false"
   showguides="false"
   inkscape:zoom="2.4714938"
   inkscape:cx="248.43275"
   inkscape:cy="127.65559"
   inkscape:window-width="1920"
   inkscape:window-height="1015"
   inkscape:window-x="0"
   inkscape:window-y="0"
   inkscape:window-maximized="1"
   inkscape:current-layer="Layer_1" />
<style
   type="text/css"
   id="style73">
	.st0{fill:#7A1315;}
	.st1{fill:none;stroke:#000000;stroke-width:0.5;stroke-miterlimit:10;}
	.st2{fill:#FFFFFF;}
</style>
<g
   id="g83"
   transform="translate(-4.3116714,-18.179927)">
	<path
   d="m 127.32,176.47 h 9.02 v 2.74 h -6.06 v 2.74 h 5.6 v 2.74 h -5.6 v 5.24 h -2.96 z"
   id="path75" />
	<path
   d="m 145.54,176.47 h 2.45 l 5.85,13.45 h -3.34 l -1.16,-2.85 h -5.23 l -1.12,2.85 h -3.27 z m 1.14,3.91 -1.63,4.18 h 3.29 z"
   id="path77" />
	<path
   d="m 158.88,176.47 h 5.21 c 0.68,0 1.33,0.07 1.95,0.2 0.61,0.13 1.15,0.36 1.62,0.67 0.46,0.31 0.83,0.73 1.1,1.25 0.27,0.53 0.41,1.18 0.41,1.97 0,0.95 -0.25,1.76 -0.74,2.42 -0.49,0.67 -1.22,1.09 -2.17,1.26 l 3.42,5.68 h -3.55 l -2.81,-5.38 h -1.46 v 5.38 h -2.96 v -13.45 z m 2.96,5.56 h 1.75 c 0.27,0 0.55,-0.01 0.85,-0.03 0.3,-0.02 0.57,-0.08 0.81,-0.17 0.24,-0.09 0.44,-0.24 0.6,-0.45 0.16,-0.2 0.24,-0.49 0.24,-0.85 0,-0.34 -0.07,-0.61 -0.21,-0.82 -0.14,-0.2 -0.32,-0.36 -0.53,-0.47 -0.22,-0.11 -0.46,-0.18 -0.74,-0.22 -0.28,-0.04 -0.55,-0.06 -0.82,-0.06 h -1.94 v 3.07 z"
   id="path79" />
	<path
   d="m 174.88,176.47 h 4.48 l 3.1,8.78 h 0.04 l 3.12,-8.78 h 4.46 v 13.45 h -2.96 V 179.6 h -0.04 l -3.53,10.32 h -2.26 l -3.4,-10.32 h -0.04 v 10.32 h -2.96 v -13.45 z"
   id="path81" />
</g>
<g
   id="g105"
   transform="translate(-4.3116714,-18.179927)">
	<path
   class="st0"
   d="m 112.32,63.32 c -0.14,-2.14 -0.25,-3.99 -0.37,-5.84 -0.12,-1.8 0.36,-2.56 1.73,-2.73 1.48,-0.18 2.56,0.68 2.75,2.35 0.18,1.57 0.23,3.15 0.33,4.73 0.04,0.66 0.07,1.33 0.11,2.18 1.03,-0.81 1.82,-1.63 2.77,-2.13 1.8,-0.94 3.65,-1.83 5.57,-2.5 1.37,-0.48 2.55,0.4 2.88,1.79 0.31,1.31 -0.29,2.15 -1.8,2.59 -4,1.16 -6.83,3.49 -8.49,7.49 -0.76,1.83 -0.65,3.47 -0.7,5.34 1.34,-1.19 2.5,-2.35 3.79,-3.34 1.5,-1.14 3.29,-1.61 5.18,-1.59 1.5,0.02 2.52,0.98 2.53,2.33 0.01,1.31 -0.76,2.13 -2.3,2.2 -2.35,0.11 -4.12,1.25 -5.29,3.15 -1.13,1.84 -1.72,4.04 -2.97,5.78 -1.63,2.26 -0.48,4.57 -0.92,6.81 0.11,0.04 0.21,0.08 0.32,0.12 1.04,-1.16 2.01,-2.39 3.14,-3.45 1.27,-1.19 2.59,-2.37 4.07,-3.28 0.97,-0.59 2.24,-0.85 3.4,-0.96 1.5,-0.14 2.56,0.96 2.61,2.39 0.05,1.35 -0.77,1.92 -2.39,2.21 -1.08,0.19 -2.36,0.63 -3.04,1.41 -2.44,2.79 -4.72,5.72 -6.91,8.7 -0.47,0.64 -0.29,1.76 -0.43,2.78 1.42,-1.08 2.59,-2.27 4,-2.95 1.66,-0.8 3.5,-1.3 5.32,-1.64 1.6,-0.3 2.73,0.81 2.75,2.29 0.02,1.28 -0.71,2.17 -1.99,2.2 -2.72,0.07 -4.94,1.22 -6.55,3.28 -1.43,1.84 -2.66,3.87 -3.67,5.97 -0.49,1.02 -0.3,2.39 -0.37,3.6 -0.04,0.72 0.05,1.46 -0.01,2.18 -0.1,1.16 0.16,2.08 1.06,2.95 1.2,1.16 1.6,2.75 1.32,4.38 -0.4,2.33 -0.26,4.56 0.47,6.82 0.61,1.87 0.4,3.7 -0.81,5.36 -0.85,1.17 -1.01,2.35 -0.18,3.69 1.47,2.37 1.74,4.77 -0.06,7.17 -0.79,1.06 -0.78,2.25 -0.14,3.39 1.3,2.32 1.59,4.65 0.29,7.08 -0.13,0.25 -0.03,0.76 0.15,1.02 1.68,2.46 2.43,4.96 0.76,7.77 -0.25,0.42 -0.23,1.09 -0.13,1.6 0.95,4.64 0.14,8.89 -2.59,12.8 -0.35,0.5 -0.44,1.26 -0.48,1.91 -0.12,2.43 -0.59,4.82 -3.2,5.59 -1.88,0.56 -3.26,1.21 -4.16,3.09 -0.6,1.27 -2.15,1.44 -3.52,1.4 -1.13,-0.03 -1.91,0.24 -2.65,1.29 -1.02,1.45 -2.66,1.94 -4.45,1.57 -0.71,-0.14 -1.4,-0.47 -2.11,-0.5 -0.71,-0.03 -1.45,0.14 -2.14,0.34 -0.73,0.21 -1.4,0.65 -2.14,0.81 -1.78,0.4 -3.4,-0.3 -4.18,-1.94 -0.57,-1.19 -1.36,-1.89 -2.64,-2.12 -0.46,-0.08 -0.9,-0.28 -1.33,-0.47 -1.6,-0.69 -2.23,-1.55 -2.06,-3.29 0.19,-1.98 -0.19,-3.75 -1,-5.57 -1.4,-3.13 -0.78,-4.88 1.84,-7.07 1.36,-1.13 2.63,-2.44 3.69,-3.85 2.8,-3.73 6.93,-3.72 9.66,0.11 0.27,0.38 0.76,0.64 1.2,0.87 3.18,1.7 5.12,4.24 5.23,7.93 0.1,3.28 -2.28,5.86 -5.59,6.25 -3.44,0.4 -6.8,-1.8 -7.47,-4.89 -0.32,-1.47 0.26,-2.64 1.54,-3.13 1.29,-0.49 2.25,-0.02 2.74,1.26 0.24,0.62 0.54,1.28 0.99,1.74 0.62,0.64 1.46,1 2.31,0.38 0.81,-0.59 1.24,-1.41 0.96,-2.46 -0.64,-2.39 -4.18,-4.17 -7.08,-3.57 -2.73,0.56 -4.43,2.92 -4.09,5.65 0.54,4.27 3.56,7.03 7.85,7.18 9.17,0.33 18.22,-7.44 18.8,-16.57 0.3,-4.8 0.04,-9.66 -0.32,-14.46 -0.83,-11.06 -0.87,-22.13 -0.9,-33.2 -0.01,-3.34 0.05,-6.67 -0.04,-10.01 -0.14,-5.2 -2.43,-9.3 -6.76,-12.14 -1.02,-0.67 -2.37,-0.93 -3.61,-1.12 -1.59,-0.24 -2.43,-0.87 -2.41,-2.23 0.02,-1.41 1.07,-2.42 2.63,-2.37 2.55,0.09 4.86,0.95 6.85,2.55 1.06,0.85 2.04,1.79 3.26,2.87 -0.08,-1.62 0.41,-3.12 -0.61,-4.42 -2.06,-2.61 -4.06,-5.28 -6.31,-7.72 -0.78,-0.84 -2.18,-1.27 -3.37,-1.54 -1.3,-0.29 -2.08,-0.72 -2.2,-1.87 -0.13,-1.22 0.7,-2.59 1.91,-2.61 1.28,-0.02 2.79,0.06 3.79,0.72 1.98,1.29 3.68,3 5.48,4.56 0.37,0.32 0.66,0.73 1.12,1.05 -0.12,-1.91 0.68,-3.8 -0.63,-5.64 -0.87,-1.23 -1.19,-2.83 -1.9,-4.18 -1.45,-2.74 -3.43,-4.77 -6.84,-4.82 -1.15,-0.02 -1.79,-0.93 -1.78,-2.11 0.01,-1.28 0.79,-2.22 2.09,-2.33 2.58,-0.22 4.79,0.7 6.7,2.36 0.79,0.68 1.47,1.48 2.36,2.39 0.49,-4.18 -0.65,-7.55 -3.74,-10 -1.5,-1.19 -3.38,-1.93 -5.17,-2.68 -1.31,-0.55 -2.07,-1.37 -1.81,-2.51 0.32,-1.45 1.51,-2.23 2.97,-1.92 2.47,0.53 4.63,1.73 6.61,3.27 0.21,0.15 0.43,0.31 0.92,0.68 z"
   id="path85" />
	<path
   class="st0"
   d="m 30.1,121.28 c 0,-0.8 0,-1.52 0,-2.23 0,-1.83 0.81,-3.23 2.4,-4.09 1.6,-0.88 3.2,-0.77 4.7,0.31 0.03,0.02 0.07,0.04 0.11,0.07 2.01,1.32 2.01,1.32 3.99,-0.14 1.83,-1.34 4.26,-1.22 6.06,0.64 1.55,1.6 3.21,2.82 5.29,3.67 2.06,0.84 2.95,3.17 2.5,5.38 -0.12,0.6 -0.13,1.27 0.01,1.86 1.29,5.62 -2.74,11 -8.06,10.7 -3.57,-0.2 -6.68,-3.47 -6.49,-6.83 0.12,-2.1 1.97,-4.33 4.03,-4.56 0.59,-0.07 1.49,0.43 1.85,0.95 0.66,0.96 0.41,2.04 -0.32,2.97 -0.36,0.47 -1.44,0.5 -0.92,1.52 0.46,0.9 1.87,1.72 2.8,1.39 0.72,-0.26 1.5,-0.72 1.93,-1.32 1.11,-1.54 1.16,-3.26 0.31,-4.98 -2.31,-4.67 -9.23,-6.41 -14.1,-3.56 -4.99,2.93 -6.75,9.37 -3.76,13.81 1.48,2.2 3.64,3.48 6.12,4.17 2.47,0.68 4.98,1.2 7.48,1.78 9.69,2.24 14.86,11.42 11.77,20.89 -1.17,3.6 -3.76,5.87 -7.07,7.34 -5.99,2.65 -11.69,1.97 -16.9,-2 -4.03,-3.07 -5.45,-8.29 -3.58,-12.61 1.86,-4.33 7.02,-7.02 11.98,-6.26 4.52,0.7 7.44,3.57 8.02,7.91 0.39,2.89 -1.45,6 -4.2,7.11 -2.84,1.14 -6.62,0.23 -8.28,-2.05 -1.31,-1.79 -1.41,-3.7 -0.42,-5.68 0.61,-1.22 1.56,-1.66 2.72,-1.26 1.17,0.41 1.79,1.51 1.54,2.74 -0.31,1.55 -0.13,1.88 1.11,2.08 1.58,0.25 2.9,-0.54 3.01,-1.83 0.13,-1.52 -0.6,-2.62 -1.81,-3.45 -2.64,-1.82 -6.4,-1.5 -8.34,0.71 -1.97,2.24 -1.82,6.02 0.34,8.48 3.9,4.43 12.51,4.07 16.27,-0.52 3.23,-3.95 2.4,-13.81 -4.55,-16.19 -2.78,-0.95 -5.68,-1.53 -8.52,-2.3 -0.78,-0.21 -1.58,-0.39 -2.33,-0.7 -2.07,-0.87 -4.15,-1.48 -6.46,-1.6 -3.13,-0.17 -4.64,-1.94 -5.1,-5.08 -0.07,-0.48 -0.44,-0.99 -0.81,-1.35 -2.29,-2.23 -2.35,-3.76 -0.23,-6.14 0.25,-0.28 0.33,-0.82 0.28,-1.21 -0.14,-1.05 -0.5,-2.09 -0.57,-3.14 -0.22,-3.18 1.79,-5.27 4.97,-5.31 0.4,-0.01 0.77,-0.06 1.23,-0.09 z"
   id="path87" />
	<path
   class="st0"
   d="m 170.09,133.25 c 0,1.83 -0.03,3.31 0.01,4.79 0.27,10.3 0.56,20.59 0.85,30.89 0.03,1.14 -0.18,2.16 -1.38,2.62 -1.62,0.62 -3.13,-0.41 -3.17,-2.2 -0.11,-4.91 -0.15,-9.83 -0.28,-14.74 -0.3,-10.77 -0.64,-21.53 -0.95,-32.3 -0.03,-1.11 -0.12,-2.27 0.14,-3.33 0.28,-1.14 1.31,-1.46 2.45,-1.37 0.59,0.05 1.19,0.06 1.78,0.05 3.07,-0.04 4.83,1.53 5.02,4.59 0.06,1.01 0.01,2.06 -0.2,3.05 -0.3,1.41 0.22,2.14 1.52,2.61 1.86,0.67 3.04,2.07 3.47,3.97 0.19,0.85 0.17,1.79 0.06,2.66 -0.16,1.21 0.14,2.08 1.26,2.66 2.63,1.35 3.66,3.57 3.44,6.45 -0.04,0.55 -0.02,1.11 -0.04,1.67 -0.12,2.87 0.1,3.17 2.77,3.92 0,-3.14 0.04,-6.32 -0.01,-9.51 -0.11,-6.62 -0.29,-13.25 -0.4,-19.87 -0.03,-1.46 0.8,-2.27 2.17,-2.29 1.35,-0.02 2.29,0.79 2.33,2.19 0.08,2.39 0.03,4.79 0.09,7.18 0.36,13.8 0.73,27.6 1.11,41.4 0.07,2.41 -0.62,3.58 -2.45,3.95 -1.94,0.39 -3.48,-0.65 -4.33,-2.71 -2.58,-6.28 -5.22,-12.53 -7.84,-18.8 -2.27,-5.43 -4.53,-10.87 -6.8,-16.31 -0.15,-0.31 -0.32,-0.6 -0.62,-1.22 z"
   id="path89" />
	<path
   class="st0"
   d="m 89.87,93.94 c 0.3,-2.08 0.9,-5.75 1.32,-9.43 0.4,-3.61 0.81,-7.23 0.86,-10.85 0.09,-6.42 1.93,-12.09 6.24,-16.92 1.14,-1.27 2.31,-2.55 3.27,-3.95 1.17,-1.72 2.39,-3.48 3.14,-5.39 1.26,-3.21 3.33,-5.17 6.69,-6.08 5.1,-1.38 10.62,0.39 13.71,4.64 1.98,2.73 3.94,5.49 6.01,8.15 3.32,4.29 4.65,9.26 5.17,14.52 0.61,6.14 2.14,12.1 3.53,18.1 0.77,3.31 1.32,6.72 1.56,10.11 0.5,7.24 -2.84,12.65 -8.63,16.71 -3.24,2.28 -6.87,3.6 -10.76,4.25 -1.93,0.32 -2.78,-0.08 -3.03,-1.43 -0.27,-1.46 0.72,-2.75 2.41,-3.02 2.64,-0.43 5.15,-1.25 7.46,-2.61 6.6,-3.89 9.18,-9.49 7.69,-17.01 -1.19,-5.99 -2.6,-11.93 -3.8,-17.92 -0.52,-2.63 -0.84,-5.32 -1.08,-8 -0.42,-4.53 -2.13,-8.48 -4.89,-12.06 -1.8,-2.33 -3.59,-4.69 -5.25,-7.12 -1.78,-2.6 -6.56,-4.31 -10,-2.52 -0.82,0.43 -1.72,1.18 -2.04,1.99 -1.73,4.38 -4.51,8.04 -7.63,11.47 -3.42,3.75 -5.15,8.15 -5.15,13.17 -0.01,6.44 -0.82,12.78 -2.02,19.09 -1.78,9.29 3.32,16.32 8.44,19.12 1.36,0.74 2.94,1.1 4.43,1.59 0.44,0.15 0.94,0.12 1.39,0.25 1.15,0.33 1.84,1.49 1.63,2.7 -0.21,1.24 -0.88,1.78 -2.28,1.68 -4.45,-0.33 -8.22,-2.23 -11.43,-5.24 -4.69,-4.38 -6.98,-9.85 -6.96,-17.99 z"
   id="path91" />
	<path
   class="st0"
   d="m 140.98,123.29 c -5.34,0.03 -9.02,2.33 -10,6.19 -0.32,1.23 -0.16,2.73 0.22,3.97 0.49,1.6 1.33,1.64 2.46,0.37 1.18,-1.32 2.35,-1.53 3.59,-0.64 0.92,0.66 1.3,1.75 0.56,2.54 -1.14,1.22 -2.38,2.49 -3.84,3.25 -2.01,1.05 -4.49,0.05 -5.98,-1.92 -0.48,-0.63 -1.03,-1.24 -1.66,-1.73 -3.2,-2.51 -3.33,-6.74 -0.29,-9.48 0.3,-0.27 0.47,-0.73 0.57,-1.14 0.14,-0.58 0.12,-1.19 0.22,-1.78 0.51,-2.93 2.73,-4.7 5.67,-4.3 1.81,0.25 3.31,-0.01 4.77,-1.17 1.85,-1.47 3.89,-1.42 5.83,-0.1 1.31,0.89 2.68,1.35 4.31,1.34 2.98,-0.02 3.98,0.91 4.73,3.9 0.07,0.3 0.42,0.71 0.69,0.74 3.2,0.37 4.12,2.58 4.22,5.33 0.05,1.26 0.46,2.12 1.46,2.92 2.43,1.95 3.41,4.5 2.84,7.62 -0.25,1.39 -0.55,2.78 -0.62,4.18 -0.36,7.26 -1.31,14.52 -0.25,21.79 0.09,0.62 0.2,1.29 0.48,1.84 1.39,2.68 0.18,4.8 -2.85,5.09 -3.12,0.3 -5.7,-1.73 -5.61,-4.97 0.14,-4.87 0.24,-9.73 0.45,-14.6 0.25,-5.9 0.61,-11.79 -0.41,-17.65 -0.47,-2.72 -1.36,-5.3 -3.12,-7.5 -2.31,-2.89 -5.42,-4.03 -8.44,-4.09 z"
   id="path93" />
	<path
   class="st0"
   d="m 91.78,121.87 c -1.87,0.23 -3.47,0.51 -5.09,0.59 -0.84,0.04 -1.89,-0.04 -2.48,-0.51 -0.54,-0.43 -0.85,-1.49 -0.79,-2.23 0.04,-0.53 0.81,-1.34 1.36,-1.44 4.56,-0.88 9.15,-1.34 13.64,0.4 10.8,4.19 14.21,19.3 6.23,27.59 -4.88,5.07 -14.17,5.26 -18.61,0.39 -4.52,-4.96 -3.65,-12.78 1.8,-15.9 2.2,-1.26 4.59,-1.64 7.06,-1.23 4.5,0.75 7.79,5.73 6.74,10.18 -0.44,1.87 -1.57,3.28 -3.45,3.8 -3.12,0.86 -6.05,0.44 -8.45,-1.88 -1.6,-1.54 -1.31,-4.09 0.49,-5.38 1.36,-0.97 3.22,0.02 3.47,1.85 0.17,1.19 1,1.65 2.47,1.38 1.1,-0.2 1.44,-0.88 1.08,-2.13 -0.98,-3.45 -4.54,-4.63 -7.4,-2.45 -3.17,2.43 -3.01,7.18 0.3,9.4 3.64,2.45 10.15,1.63 12.88,-3.34 3.7,-6.71 0.2,-15.98 -7.08,-18.34 -1.39,-0.46 -2.92,-0.54 -4.17,-0.75 z"
   id="path95" />
	<path
   class="st0"
   d="m 138.02,159.98 c 0.38,-0.29 0.71,-0.56 1.06,-0.79 1.07,-0.68 2.47,-0.46 3.24,0.52 0.79,1.01 0.42,1.91 -0.32,2.76 -1.68,1.95 -4.12,2.59 -6.09,1.6 -2.29,-1.16 -3.86,-4.51 -3.27,-6.97 0.82,-3.4 4.43,-5.73 8.26,-5.49 6.8,0.42 9.27,6.82 8.08,11.66 -1.33,5.43 -6.2,9.31 -11.49,9.24 -5.73,-0.07 -10.3,-3.85 -11.53,-9.61 -0.79,-3.69 -0.83,-7.4 0.35,-11.02 2.04,-6.24 6.58,-9.49 12.92,-10.31 4.01,-0.52 7.83,0.27 11.34,2.35 1.47,0.87 1.89,2.11 1.14,3.42 -0.72,1.26 -1.81,1.4 -3.42,0.55 -4.62,-2.42 -9.31,-2.82 -13.88,0.04 -1.14,0.72 -2.25,1.84 -2.82,3.05 -2.02,4.27 -2.37,8.73 -0.38,13.13 1.57,3.47 5.46,4.74 9.28,3.24 3.16,-1.24 4.82,-4.84 3.82,-8.28 -0.82,-2.82 -3.63,-3.89 -6.11,-2.32 -1.38,0.89 -1.48,1.89 -0.18,3.23 z"
   id="path97" />
	<path
   class="st0"
   d="m 61.07,121.78 c 0.06,-2.19 -0.03,-4.33 -0.97,-6.39 -0.62,-1.35 -0.22,-2.75 0.63,-3.84 0.79,-1.02 2.03,-0.69 3.11,-0.4 2.6,0.7 3.77,2.72 3.93,5.14 0.23,3.48 0.11,6.99 0.11,10.49 0,9.14 -0.2,18.29 0.04,27.43 0.11,4.42 0.99,8.81 1.58,13.21 0.23,1.69 -0.59,3.58 -1.98,4.21 -1.81,0.83 -4.27,0.53 -5.22,-0.8 -0.43,-0.61 -0.61,-1.51 -0.64,-2.28 -0.33,-8.17 -0.81,-39.34 -0.59,-46.77 z"
   id="path99" />
	<path
   class="st0"
   d="m 73.84,143.57 c 0,-7.13 0,-14.27 0,-21.4 0,-2.73 1.19,-3.94 3.65,-3.74 2.78,0.22 4.63,2.28 4.31,4.68 -0.15,1.14 -0.16,2.3 -0.14,3.45 0.13,8.16 0.32,16.31 0.41,24.47 0.04,3.59 -0.2,7.18 -0.12,10.76 0.05,1.93 0.5,3.86 0.8,5.78 0.26,1.6 -0.66,2.69 -1.65,3.66 -0.92,0.9 -2.15,0.79 -3.25,0.3 -2.73,-1.21 -3.73,-3.51 -3.74,-6.32 -0.03,-7.21 -0.19,-21.64 -0.27,-21.64 z"
   id="path101" />
	<path
   class="st0"
   d="m 95.33,151.25 c 3.07,0.03 4.99,1.5 5.86,4.4 0.15,0.5 0.66,1.09 1.14,1.27 2.32,0.88 3.62,3.19 2.67,5.53 -0.68,1.67 -0.51,2.78 0.94,3.85 0.58,0.43 1,1.18 1.27,1.88 0.73,1.88 -0.42,3.55 -2.44,3.68 -2.8,0.18 -3.75,-0.35 -4.8,-2.94 -1.09,-2.68 -2.06,-5.42 -3.12,-8.11 -0.89,-2.26 -2.02,-4.29 -4.31,-5.52 -0.48,-0.26 -0.95,-1.3 -0.8,-1.78 0.24,-0.75 0.91,-1.49 1.59,-1.94 0.52,-0.34 1.33,-0.23 2,-0.32 z"
   id="path103" />
</g>
</svg>
